<svg xmlns="http://www.w3.org/2000/svg" viewBox="0 0 64 64"><g id="Layer_61" data-name="Layer 61"><path d="M57,5.54H7A4.25,4.25,0,0,0,2.75,9.79v34A4.26,4.26,0,0,0,7,48H26l-3,7.92H13.21a1.25,1.25,0,0,0,0,2.5H50.79a1.25,1.25,0,0,0,0-2.5H41.07L38,48H57a4.26,4.26,0,0,0,4.25-4.25v-34A4.25,4.25,0,0,0,57,5.54ZM38.4,56H25.6l3-7.92h6.7ZM58.75,43.79A1.76,1.76,0,0,1,57,45.54H7a1.76,1.76,0,0,1-1.75-1.75v-34A1.75,1.75,0,0,1,7,8H57a1.75,1.75,0,0,1,1.75,1.75Z" id="id_101" style="fill: rgb(103, 159, 159);"></path></g></svg>